<mxfile host="drawio-plugin" modified="2024-05-12T18:51:11.779Z" agent="5.0 (Windows NT 10.0; Win64; x64) AppleWebKit/537.36 (KHTML, like Gecko) Chrome/111.0.0.0 Safari/537.36" etag="RrD5d9ehQV2QoMh7-4Xh" version="20.5.3" type="embed"><diagram id="23iRSUPoRavnBvh4doch" name="Page-1"><mxGraphModel dx="1200" dy="1695" grid="1" gridSize="10" guides="1" tooltips="1" connect="1" arrows="1" fold="1" page="1" pageScale="1" pageWidth="827" pageHeight="1169" math="0" shadow="0"><root><mxCell id="0"/><mxCell id="1" parent="0"/><mxCell id="19" style="edgeStyle=orthogonalEdgeStyle;rounded=0;orthogonalLoop=1;jettySize=auto;html=1;exitX=0.5;exitY=1;exitDx=0;exitDy=0;entryX=0.5;entryY=0;entryDx=0;entryDy=0;" parent="1" source="2" target="61" edge="1"><mxGeometry relative="1" as="geometry"/></mxCell><mxCell id="2" value="Start" style="rounded=1;whiteSpace=wrap;html=1;" parent="1" vertex="1"><mxGeometry x="352" y="-310" width="120" height="60" as="geometry"/></mxCell><mxCell id="10" style="edgeStyle=orthogonalEdgeStyle;rounded=0;orthogonalLoop=1;jettySize=auto;html=1;exitX=1;exitY=0.5;exitDx=0;exitDy=0;" parent="1" source="5" edge="1"><mxGeometry relative="1" as="geometry"><mxPoint x="420" y="180" as="targetPoint"/><Array as="points"><mxPoint x="505" y="380"/><mxPoint x="505" y="180"/></Array></mxGeometry></mxCell><mxCell id="29" style="edgeStyle=orthogonalEdgeStyle;rounded=0;orthogonalLoop=1;jettySize=auto;html=1;entryX=0.5;entryY=0;entryDx=0;entryDy=0;startArrow=none;" parent="1" source="126" target="28" edge="1"><mxGeometry relative="1" as="geometry"><Array as="points"><mxPoint x="409" y="600"/><mxPoint x="409" y="600"/></Array></mxGeometry></mxCell><mxCell id="5" value="action ==  1 || 2 " style="rhombus;whiteSpace=wrap;" parent="1" vertex="1"><mxGeometry x="341" y="340" width="144" height="80" as="geometry"/></mxCell><mxCell id="123" style="edgeStyle=none;html=1;entryX=0.5;entryY=0;entryDx=0;entryDy=0;fontFamily=Helvetica;fontSize=12;fontColor=#000000;" parent="1" source="6" target="5" edge="1"><mxGeometry relative="1" as="geometry"/></mxCell><mxCell id="151" style="edgeStyle=none;html=1;entryX=1;entryY=0.5;entryDx=0;entryDy=0;" parent="1" source="6" target="150" edge="1"><mxGeometry relative="1" as="geometry"><mxPoint x="290" y="260" as="targetPoint"/></mxGeometry></mxCell><mxCell id="6" value="action" style="shape=parallelogram;perimeter=parallelogramPerimeter;whiteSpace=wrap;fixedSize=1;labelBackgroundColor=default;" parent="1" vertex="1"><mxGeometry x="349" y="220" width="120" height="60" as="geometry"/></mxCell><mxCell id="12" value="false" style="text;html=1;strokeColor=none;fillColor=none;align=center;verticalAlign=middle;whiteSpace=wrap;rounded=0;" parent="1" vertex="1"><mxGeometry x="500" y="260" width="60" height="30" as="geometry"/></mxCell><mxCell id="13" value="Напишите программу банкомат.&#10;Начальная сумма равна нулю&#10;Допустимые действия: пополнить, снять, выйти&#10;Сумма пополнения и снятия кратны 50 у.е.&#10;Процент за снятие — 1.5% от суммы снятия, но не менее 30 и не более 600 у.е.&#10;После каждой третей операции пополнения или снятия начисляются проценты - 3%&#10;Нельзя снять больше, чем на счёте&#10;При превышении суммы в 5 млн, вычитать налог на богатство 10% перед каждой операцией, даже ошибочной&#10;Любое действие выводит сумму денег" style="text;whiteSpace=wrap;fontSize=20;" parent="1" vertex="1"><mxGeometry x="-350" y="480" width="560" height="180" as="geometry"/></mxCell><mxCell id="35" style="edgeStyle=orthogonalEdgeStyle;rounded=0;orthogonalLoop=1;jettySize=auto;html=1;" parent="1" edge="1"><mxGeometry relative="1" as="geometry"><Array as="points"><mxPoint x="640" y="760"/><mxPoint x="640" y="-110"/></Array><mxPoint x="410" y="-110" as="targetPoint"/><mxPoint x="640" y="1340" as="sourcePoint"/></mxGeometry></mxCell><mxCell id="124" style="edgeStyle=none;html=1;exitX=1;exitY=0.5;exitDx=0;exitDy=0;" parent="1" source="27" edge="1"><mxGeometry relative="1" as="geometry"><mxPoint x="411.5" y="570" as="targetPoint"/><mxPoint x="490" y="872.5" as="sourcePoint"/><Array as="points"><mxPoint x="520" y="750"/><mxPoint x="520" y="570"/></Array></mxGeometry></mxCell><mxCell id="31" style="edgeStyle=orthogonalEdgeStyle;rounded=0;orthogonalLoop=1;jettySize=auto;html=1;entryX=0.479;entryY=-0.014;entryDx=0;entryDy=0;entryPerimeter=0;" parent="1" source="27" edge="1"><mxGeometry relative="1" as="geometry"><mxPoint x="408.203" y="828.81" as="targetPoint"/></mxGeometry></mxCell><mxCell id="27" value="amount % 50 " style="rhombus;whiteSpace=wrap;" parent="1" vertex="1"><mxGeometry x="337" y="710" width="144" height="80" as="geometry"/></mxCell><mxCell id="30" style="edgeStyle=orthogonalEdgeStyle;rounded=0;orthogonalLoop=1;jettySize=auto;html=1;entryX=0.5;entryY=0;entryDx=0;entryDy=0;startArrow=none;exitX=0.5;exitY=1;exitDx=0;exitDy=0;" parent="1" source="28" target="27" edge="1"><mxGeometry relative="1" as="geometry"><mxPoint x="409.00000000000045" y="725" as="sourcePoint"/></mxGeometry></mxCell><mxCell id="28" value="amount" style="shape=parallelogram;perimeter=parallelogramPerimeter;whiteSpace=wrap;fixedSize=1;" parent="1" vertex="1"><mxGeometry x="349" y="610" width="120" height="60" as="geometry"/></mxCell><mxCell id="105" style="edgeStyle=orthogonalEdgeStyle;html=1;entryX=0.5;entryY=0;entryDx=0;entryDy=0;" parent="1" source="61" target="95" edge="1"><mxGeometry relative="1" as="geometry"><mxPoint x="413" y="-100" as="targetPoint"/></mxGeometry></mxCell><mxCell id="61" value="balance= 0&#10;operations=0" style="rounded=0;whiteSpace=wrap;" parent="1" vertex="1"><mxGeometry x="337" y="-210" width="150" height="55" as="geometry"/></mxCell><mxCell id="103" style="edgeStyle=orthogonalEdgeStyle;html=1;entryX=0.5;entryY=0;entryDx=0;entryDy=0;" parent="1" source="95" target="98" edge="1"><mxGeometry relative="1" as="geometry"/></mxCell><mxCell id="119" style="edgeStyle=none;html=1;entryX=0.5;entryY=0;entryDx=0;entryDy=0;fontFamily=Helvetica;fontSize=12;fontColor=#000000;" parent="1" source="95" edge="1"><mxGeometry relative="1" as="geometry"><mxPoint x="412" y="80" as="targetPoint"/></mxGeometry></mxCell><mxCell id="95" value="balance&gt; 5000000" style="rhombus;whiteSpace=wrap;" parent="1" vertex="1"><mxGeometry x="340" y="-60" width="144" height="80" as="geometry"/></mxCell><mxCell id="104" style="edgeStyle=orthogonalEdgeStyle;html=1;" parent="1" source="98" target="115" edge="1"><mxGeometry relative="1" as="geometry"><Array as="points"><mxPoint x="320" y="110"/><mxPoint x="320" y="110"/></Array></mxGeometry></mxCell><mxCell id="98" value="balance-10%" style="rounded=0;whiteSpace=wrap;" parent="1" vertex="1"><mxGeometry x="140" y="80" width="120" height="60" as="geometry"/></mxCell><mxCell id="102" value="true" style="text;html=1;strokeColor=none;fillColor=none;align=center;verticalAlign=middle;whiteSpace=wrap;rounded=0;" parent="1" vertex="1"><mxGeometry x="247" y="-50" width="60" height="30" as="geometry"/></mxCell><mxCell id="121" style="edgeStyle=none;html=1;entryX=0.604;entryY=0.016;entryDx=0;entryDy=0;entryPerimeter=0;fontFamily=Helvetica;fontSize=12;fontColor=#000000;" parent="1" source="115" target="6" edge="1"><mxGeometry relative="1" as="geometry"/></mxCell><mxCell id="115" value="Текущий баланс уе &#10;action&#10;1-пополнить,&#10; 2-снять,&#10;выйти" style="shape=document;boundedLbl=1;strokeColor=default;fontColor=default;whiteSpace=wrap;labelBackgroundColor=default;align=center;verticalAlign=middle;" parent="1" vertex="1"><mxGeometry x="337" y="40" width="163" height="130" as="geometry"/></mxCell><mxCell id="127" value="" style="edgeStyle=orthogonalEdgeStyle;rounded=0;orthogonalLoop=1;jettySize=auto;html=1;entryX=0.5;entryY=0;entryDx=0;entryDy=0;endArrow=none;" parent="1" source="5" target="126" edge="1"><mxGeometry relative="1" as="geometry"><Array as="points"/><mxPoint x="410.0000000000002" y="418.33333333333303" as="sourcePoint"/><mxPoint x="409" y="610" as="targetPoint"/></mxGeometry></mxCell><mxCell id="126" value="Введите сумму кратную 50 у.е.&#10;" style="shape=document;whiteSpace=wrap;boundedLbl=1;labelBackgroundColor=default;" parent="1" vertex="1"><mxGeometry x="334.5" y="470" width="157" height="85" as="geometry"/></mxCell><mxCell id="128" value="false" style="text;html=1;strokeColor=none;fillColor=none;align=center;verticalAlign=middle;whiteSpace=wrap;rounded=0;" parent="1" vertex="1"><mxGeometry x="519" y="645" width="60" height="30" as="geometry"/></mxCell><mxCell id="133" style="edgeStyle=none;html=1;entryX=0.5;entryY=0;entryDx=0;entryDy=0;" parent="1" source="129" target="132" edge="1"><mxGeometry relative="1" as="geometry"/></mxCell><mxCell id="138" style="edgeStyle=none;html=1;entryX=0.5;entryY=0;entryDx=0;entryDy=0;exitX=0;exitY=0.5;exitDx=0;exitDy=0;" parent="1" source="129" target="137" edge="1"><mxGeometry relative="1" as="geometry"><Array as="points"><mxPoint x="144" y="870"/></Array></mxGeometry></mxCell><mxCell id="129" value="action == 1" style="rhombus;whiteSpace=wrap;labelBackgroundColor=default;" parent="1" vertex="1"><mxGeometry x="337" y="830" width="144" height="80" as="geometry"/></mxCell><mxCell id="134" style="edgeStyle=none;html=1;entryX=0.5;entryY=0;entryDx=0;entryDy=0;" parent="1" source="132" edge="1"><mxGeometry relative="1" as="geometry"><mxPoint x="409" y="1040" as="targetPoint"/></mxGeometry></mxCell><mxCell id="132" value="balance += amount" style="whiteSpace=wrap;labelBackgroundColor=default;verticalAlign=middle;align=center;" parent="1" vertex="1"><mxGeometry x="331" y="950" width="156" height="50" as="geometry"/></mxCell><mxCell id="140" style="edgeStyle=none;html=1;entryX=0.5;entryY=0;entryDx=0;entryDy=0;" parent="1" source="137" target="139" edge="1"><mxGeometry relative="1" as="geometry"/></mxCell><mxCell id="137" value="&lt;div style=&quot;line-height: 60%;&quot;&gt;&lt;pre style=&quot;font-family: &amp;quot;JetBrains Mono&amp;quot;, monospace; line-height: 60%;&quot;&gt;commission=amount*0,015&lt;br&gt;&lt;/pre&gt;&lt;pre style=&quot;font-family: &amp;quot;JetBrains Mono&amp;quot;, monospace; line-height: 60%;&quot;&gt;&lt;pre style=&quot;border-color: var(--border-color); font-family: &amp;quot;JetBrains Mono&amp;quot;, monospace; line-height: 7.2px;&quot;&gt;commission &amp;lt;= 600&lt;/pre&gt;&lt;pre style=&quot;border-color: var(--border-color); font-family: &amp;quot;JetBrains Mono&amp;quot;, monospace; line-height: 7.2px;&quot;&gt;commission &amp;gt;= 30&lt;/pre&gt;&lt;/pre&gt;&lt;/div&gt;" style="whiteSpace=wrap;html=1;labelBackgroundColor=default;verticalAlign=middle;align=center;" parent="1" vertex="1"><mxGeometry x="41" y="927.5" width="206" height="72.5" as="geometry"/></mxCell><mxCell id="143" style="edgeStyle=none;html=1;entryX=0.5;entryY=0;entryDx=0;entryDy=0;" parent="1" source="139" target="142" edge="1"><mxGeometry relative="1" as="geometry"/></mxCell><mxCell id="145" style="edgeStyle=none;html=1;entryX=0.5;entryY=0;entryDx=0;entryDy=0;exitX=0;exitY=0.5;exitDx=0;exitDy=0;" parent="1" source="139" target="144" edge="1"><mxGeometry relative="1" as="geometry"><Array as="points"><mxPoint x="-42" y="1100"/></Array></mxGeometry></mxCell><mxCell id="139" value="commission + amount &gt; balance" style="rhombus;whiteSpace=wrap;" parent="1" vertex="1"><mxGeometry x="61" y="1050" width="166" height="100" as="geometry"/></mxCell><mxCell id="158" style="edgeStyle=none;html=1;" parent="1" source="142" edge="1"><mxGeometry relative="1" as="geometry"><mxPoint x="640" y="1240" as="targetPoint"/></mxGeometry></mxCell><mxCell id="142" value="На балансе недостаточно средств" style="shape=document;boundedLbl=1;labelBackgroundColor=none;fontColor=#FFFFFF;whiteSpace=wrap;" parent="1" vertex="1"><mxGeometry x="64" y="1200" width="160" height="75" as="geometry"/></mxCell><mxCell id="147" style="edgeStyle=none;html=1;entryX=0.5;entryY=0;entryDx=0;entryDy=0;" parent="1" source="144" target="146" edge="1"><mxGeometry relative="1" as="geometry"/></mxCell><mxCell id="144" value="balance-=&#10;amount + commission" style="whiteSpace=wrap;labelBackgroundColor=default;verticalAlign=middle;align=center;" parent="1" vertex="1"><mxGeometry x="-110" y="1160" width="136" height="60" as="geometry"/></mxCell><mxCell id="159" style="edgeStyle=none;html=1;entryX=0;entryY=0.5;entryDx=0;entryDy=0;" parent="1" source="146" target="148" edge="1"><mxGeometry relative="1" as="geometry"><mxPoint x="380" y="1302.5" as="targetPoint"/></mxGeometry></mxCell><mxCell id="146" value="balance" style="shape=document;boundedLbl=1;labelBackgroundColor=none;fontColor=#000000;whiteSpace=wrap;" parent="1" vertex="1"><mxGeometry x="-122" y="1342.5" width="160" height="55" as="geometry"/></mxCell><mxCell id="162" style="edgeStyle=none;html=1;entryX=0.5;entryY=0;entryDx=0;entryDy=0;" parent="1" source="148" target="161" edge="1"><mxGeometry relative="1" as="geometry"/></mxCell><mxCell id="164" style="edgeStyle=none;html=1;entryX=0;entryY=0.5;entryDx=0;entryDy=0;" parent="1" source="148" target="165" edge="1"><mxGeometry relative="1" as="geometry"><mxPoint x="640" y="1302.5" as="targetPoint"/></mxGeometry></mxCell><mxCell id="148" value="operations % 3" style="rhombus;whiteSpace=wrap;" parent="1" vertex="1"><mxGeometry x="337" y="1332.5" width="144" height="80" as="geometry"/></mxCell><mxCell id="160" style="edgeStyle=none;html=1;entryX=0.5;entryY=0;entryDx=0;entryDy=0;" parent="1" source="149" target="148" edge="1"><mxGeometry relative="1" as="geometry"/></mxCell><mxCell id="149" value="balance" style="shape=document;boundedLbl=1;labelBackgroundColor=default;fontColor=#FFFFFF;whiteSpace=wrap;" parent="1" vertex="1"><mxGeometry x="327" y="1040" width="160" height="55" as="geometry"/></mxCell><mxCell id="154" style="edgeStyle=none;html=1;entryX=0.5;entryY=0;entryDx=0;entryDy=0;" parent="1" source="150" target="153" edge="1"><mxGeometry relative="1" as="geometry"/></mxCell><mxCell id="155" style="edgeStyle=none;html=1;exitX=0.5;exitY=0;exitDx=0;exitDy=0;" parent="1" source="150" edge="1"><mxGeometry relative="1" as="geometry"><mxPoint x="420" y="180" as="targetPoint"/><Array as="points"><mxPoint x="219" y="180"/></Array></mxGeometry></mxCell><mxCell id="150" value="action ==  3 " style="rhombus;whiteSpace=wrap;" parent="1" vertex="1"><mxGeometry x="147" y="210" width="144" height="80" as="geometry"/></mxCell><mxCell id="153" value="End" style="rounded=1;whiteSpace=wrap;html=1;" parent="1" vertex="1"><mxGeometry x="160" y="330" width="120" height="60" as="geometry"/></mxCell><mxCell id="156" value="false" style="text;html=1;strokeColor=none;fillColor=none;align=center;verticalAlign=middle;whiteSpace=wrap;rounded=0;" parent="1" vertex="1"><mxGeometry x="265" y="150" width="60" height="30" as="geometry"/></mxCell><mxCell id="157" value="true" style="text;html=1;strokeColor=none;fillColor=none;align=center;verticalAlign=middle;whiteSpace=wrap;rounded=0;" parent="1" vertex="1"><mxGeometry x="412" y="910" width="60" height="30" as="geometry"/></mxCell><mxCell id="167" style="edgeStyle=none;html=1;" parent="1" source="161" target="166" edge="1"><mxGeometry relative="1" as="geometry"/></mxCell><mxCell id="161" value="balance*1.03" style="rounded=0;whiteSpace=wrap;" parent="1" vertex="1"><mxGeometry x="347" y="1460" width="120" height="60" as="geometry"/></mxCell><mxCell id="163" value="true" style="text;html=1;strokeColor=none;fillColor=none;align=center;verticalAlign=middle;whiteSpace=wrap;rounded=0;" parent="1" vertex="1"><mxGeometry x="347" y="1420" width="60" height="30" as="geometry"/></mxCell><mxCell id="165" value="operations + 1" style="rounded=0;whiteSpace=wrap;" parent="1" vertex="1"><mxGeometry x="579" y="1342.5" width="120" height="60" as="geometry"/></mxCell><mxCell id="168" style="edgeStyle=none;html=1;entryX=0.5;entryY=1;entryDx=0;entryDy=0;exitX=1;exitY=0.25;exitDx=0;exitDy=0;" parent="1" source="166" target="165" edge="1"><mxGeometry relative="1" as="geometry"/></mxCell><mxCell id="166" value="balance" style="shape=document;boundedLbl=1;labelBackgroundColor=none;fontColor=#000000;whiteSpace=wrap;size=0.45454545454545453;" parent="1" vertex="1"><mxGeometry x="327" y="1560" width="160" height="55" as="geometry"/></mxCell><mxCell id="169" value="true" style="text;html=1;strokeColor=none;fillColor=none;align=center;verticalAlign=middle;whiteSpace=wrap;rounded=0;" parent="1" vertex="1"><mxGeometry x="80" y="1160" width="60" height="30" as="geometry"/></mxCell></root></mxGraphModel></diagram></mxfile>